<svg width="1069" height="624" viewBox="0 0 1069 624" fill="none" xmlns="http://www.w3.org/2000/svg">
<path d="M0 15.0138C0 6.72191 6.71573 0 15 0H1054C1062.28 0 1069 6.7219 1069 15.0138V608.559C1069 616.85 1062.28 623.572 1054 623.572H15C6.71575 623.572 0 616.85 0 608.559V15.0138Z" fill="#2F5AB3"/>
<path d="M3.04194e-05 312.156V44.8962C14.2095 37.9146 31.1755 36.573 50.8981 40.8713C89.5893 49.3038 123.288 56.0185 151.994 61.0155C180.701 66.0125 199.734 82.0966 209.095 109.268C218.456 136.439 231.561 165.172 248.41 195.466C265.26 225.76 265.416 258.397 248.878 293.376C232.341 328.355 204.883 355.214 166.504 373.952C128.124 392.691 91.6175 390.193 56.9826 366.457C33.3329 350.25 14.3388 332.149 3.04194e-05 312.156Z" fill="#4A6DB7" fill-opacity="0.33"/>
<path d="M599.268 3.04474e-05H866.282C873.258 14.2225 874.598 31.2041 870.304 50.9449C861.879 89.6716 855.17 123.401 850.178 152.134C845.186 180.867 829.116 199.918 801.97 209.287C774.824 218.657 746.117 231.774 715.851 248.639C685.584 265.503 652.978 265.66 618.031 249.107C583.084 232.555 556.25 205.071 537.528 166.657C518.807 128.242 521.303 91.7017 545.017 57.035C561.209 33.3636 579.293 14.3519 599.268 3.04474e-05Z" fill="#4A6DB7" fill-opacity="0.33"/>
<path d="M937.169 624H670.155C663.179 609.778 661.839 592.796 666.133 573.055C674.558 534.328 681.267 500.599 686.259 471.866C691.251 443.133 707.321 424.082 734.467 414.713C761.613 405.343 790.32 392.226 820.586 375.361C850.853 358.497 883.459 358.34 918.406 374.893C953.353 391.445 980.187 418.929 998.909 457.343C1017.63 495.758 1015.13 532.298 991.42 566.965C975.228 590.636 957.144 609.648 937.169 624Z" fill="#4A6DB7" fill-opacity="0.33"/>
</svg>
